<svg xmlns="http://www.w3.org/2000/svg" viewBox="0 0 64 64" width="64" height="64">
  <rect width="64" height="64" rx="12" fill="#0a0e1a"/>
  <!-- Green C shape -->
  <path d="M52 18 C52 18 44 10 32 10 C18 10 10 20 10 32 C10 44 18 54 32 54 C44 54 52 46 52 46 L46 40 C46 40 40 46 32 46 C22 46 18 40 18 32 C18 24 22 18 32 18 C40 18 46 24 46 24 Z" fill="none" stroke="#00e676" stroke-width="6" stroke-linecap="round" stroke-linejoin="round"/>
  <!-- Candlestick bars -->
  <line x1="24" y1="38" x2="24" y2="28" stroke="#00e676" stroke-width="1.5" stroke-opacity="0.7"/>
  <rect x="22" y="32" width="4" height="5" rx="0.5" fill="#00e676" fill-opacity="0.8"/>
  <line x1="31" y1="36" x2="31" y2="24" stroke="#00e676" stroke-width="1.5" stroke-opacity="0.7"/>
  <rect x="29" y="28" width="4" height="6" rx="0.5" fill="#00e676" fill-opacity="0.9"/>
  <line x1="38" y1="34" x2="38" y2="20" stroke="#00e676" stroke-width="1.5" stroke-opacity="0.7"/>
  <rect x="36" y="24" width="4" height="7" rx="0.5" fill="#00e676"/>
  <!-- Blue upward trend arrow -->
  <polyline points="22,39 29,33 36,25 44,18" fill="none" stroke="#4fc3f7" stroke-width="1.8" stroke-linecap="round" stroke-linejoin="round"/>
  <polygon points="44,18 40,19 43,22" fill="#4fc3f7"/>
</svg>
